<svg xmlns="http://www.w3.org/2000/svg" viewBox="0 0 24 24" fill="currentColor"><path d="M3.064 7.51A10 10 0 0 1 12 2a9.93 9.93 0 0 1 6.929 2.788l-2.87 2.87A5.97 5.97 0 0 0 12 6a6 6 0 0 0-5.204 3zm-1.622 3.024A10.019 10.019 0 0 0 2 12c0 .878.113 1.73.324 2.545A9.972 9.972 0 0 0 12 22a9.943 9.943 0 0 0 6.929-2.788l-2.87-2.87A5.97 5.97 0 0 1 12 18a5.97 5.97 0 0 1-5.204-3.01L1.442 10.534zm17.332 6.99l-2.87-2.87A5.97 5.97 0 0 0 18 12a5.97 5.97 0 0 0-.796-3.01l2.871-2.87A9.972 9.972 0 0 1 22 12c0 2.167-.69 4.175-1.854 5.824a9.97 9.97 0 0 1-.38.52z"/></svg>
