<svg xmlns="http://www.w3.org/2000/svg" viewBox="0 0 24 24" fill="currentColor"><path d="M18.164 8.537V6.256a1.73 1.73 0 0 0 .997-1.557V4.7a1.73 1.73 0 0 0-1.73-1.73h-.001a1.73 1.73 0 0 0-1.73 1.73v-.001a1.73 1.73 0 0 0 .999 1.557v2.281a4.902 4.902 0 0 0-2.319 1.021L8.192 5.84a1.925 1.925 0 1 0-.924 1.162l6.009 3.638a4.902 4.902 0 0 0-.648 2.43 4.902 4.902 0 0 0 .648 2.43l-5.963 3.61a1.925 1.925 0 1 0 .948 1.145l5.984-3.623a4.902 4.902 0 0 0 2.319 1.021v.001a4.917 4.917 0 1 0 1.599-9.117zm-.734 7.17a2.32 2.32 0 1 1 0-4.64 2.32 2.32 0 0 1 0 4.64z"/></svg>
