<svg xmlns="http://www.w3.org/2000/svg" viewBox="0 0 24 24" fill="currentColor"><path d="M20.03 11.277c.047-.395.026-.805-.073-1.226-.14-.594-.404-1.1-.737-1.5.11-.397.136-.788.052-1.105-.164-.626-.672-.96-1.348-.974a2.6 2.6 0 0 0-.596.054 10.76 10.76 0 0 0-.44-.616C15.86 4.318 14.37 3.6 12.756 3.562c-1.102-.025-2.1.29-2.9.835a4.24 4.24 0 0 0-.623-.035c-1.016 0-1.864.372-2.432 1.032-.477.548-.705 1.261-.638 2.011C5.403 7.88 5 8.72 5 9.657c0 .336.054.67.163.99C4.44 11.248 4 12.28 4 13.45 4 16.03 5.97 18 8.547 18c.468 0 .917-.072 1.336-.204.57.424 1.382.66 2.263.66 1.18 0 2.24-.424 2.913-1.12.466.112.942.168 1.44.168 2.37 0 3.9-1.3 3.9-3.308 0-.716-.19-1.36-.37-1.92zM9.5 15.5c-.828 0-1.5-.672-1.5-1.5s.672-1.5 1.5-1.5 1.5.672 1.5 1.5-.672 1.5-1.5 1.5zm5 0c-.828 0-1.5-.672-1.5-1.5s.672-1.5 1.5-1.5 1.5.672 1.5 1.5-.672 1.5-1.5 1.5z"/></svg>
