<svg xmlns="http://www.w3.org/2000/svg" viewBox="0 0 24 24" fill="currentColor"><path d="M6.915 4.03c-1.968 0-3.683 1.28-4.871 3.113C.704 9.208 0 11.883 0 14.449c0 .706.089 1.37.297 1.976.094.284.525 1.268 1.482 1.268.897 0 1.355-.573 1.482-.994l.326-1.229c.135-.488.2-.739.282-1.013.102-.341.169-.556.265-.757.33-.683.828-1.027 1.457-1.027.842 0 1.443.712 1.986 2.402l1.002 3.034.033.1c.196.601.618 1.49 1.649 1.49 1.032 0 1.399-.862 1.597-1.49l.13-.41c.27-.86.424-1.332.594-1.76l.026-.064c.189-.474.478-.832.958-.832.488 0 .832.363 1.074.858.226.467.367.965.55 1.603l.066.225c.263.89.686 1.874 1.688 1.874 1.01 0 1.413-1.003 1.618-1.603l.065-.2c.294-.9.478-1.536.67-2.047.186-.494.38-.76.67-.76.282 0 .536.257.728.698.193.44.329.988.474 1.571l.101.405c.193.77.659 1.937 1.79 1.937.958 0 1.394-.884 1.484-1.273.23-1.027.23-2.047.23-2.047C24 11.38 23.3 9.204 21.955 7.144 20.768 5.31 19.052 4.03 17.084 4.03c-1.484 0-2.782.695-3.771 1.86-.574.691-1.048 1.625-1.313 2.43-.264-.805-.739-1.739-1.313-2.43C9.697 4.725 8.4 4.03 6.915 4.03z"/></svg>
