<svg xmlns="http://www.w3.org/2000/svg" viewBox="0 0 24 24" fill="currentColor"><path d="M22.282 9.821a5.985 5.985 0 0 0-.516-4.91 6.046 6.046 0 0 0-6.51-2.9A6.065 6.065 0 0 0 4.981 4.18a5.985 5.985 0 0 0-3.998 2.9 6.046 6.046 0 0 0 .743 7.097 5.98 5.98 0 0 0 .51 4.911 6.051 6.051 0 0 0 6.515 2.9A5.985 5.985 0 0 0 13.26 24a6.056 6.056 0 0 0 5.772-4.206 5.99 5.99 0 0 0 3.997-2.9 6.056 6.056 0 0 0-.747-7.073zm-9.025 12.365a4.487 4.487 0 0 1-2.876-1.04l.141-.081 4.779-2.758a.795.795 0 0 0 .392-.681v-6.737l2.02 1.168a.071.071 0 0 1 .038.052v5.583a4.504 4.504 0 0 1-4.494 4.494zM4.228 19.009a4.473 4.473 0 0 1-.535-3.014l.142.085 4.783 2.759a.771.771 0 0 0 .78 0l5.843-3.369v2.332a.08.08 0 0 1-.033.062L10.453 21.1a4.494 4.494 0 0 1-6.225-2.091zm-1.133-9.547a4.468 4.468 0 0 1 2.34-1.97V13.3a.772.772 0 0 0 .389.677l5.834 3.365-2.02 1.168a.076.076 0 0 1-.071 0l-4.83-2.786a4.504 4.504 0 0 1-1.642-6.271zm16.604 3.868l-5.843-3.369 2.02-1.164a.08.08 0 0 1 .071 0l4.83 2.786a4.494 4.494 0 0 1-.676 8.105V14.47a.772.772 0 0 0-.402-.64zm2.007-3.023l-.141-.085-4.774-2.782a.776.776 0 0 0-.785 0L10.167 10.81V8.479a.071.071 0 0 1 .028-.057l4.755-2.744a4.494 4.494 0 0 1 6.685 4.657zm-12.64 4.135l-2.02-1.164a.08.08 0 0 1-.038-.057v-5.583a4.497 4.497 0 0 1 7.375-3.453l-.142.08-4.778 2.758a.795.795 0 0 0-.392.681v6.737zm1.097-2.365l2.602-1.5 2.607 1.5v2.993l-2.607 1.5-2.602-1.5v-2.993z"/></svg>
