<svg xmlns="http://www.w3.org/2000/svg" viewBox="0 0 24 24" fill="currentColor"><path d="M12 10.11A1.89 1.89 0 1 1 10.11 12 1.89 1.89 0 0 1 12 10.11zM2 12c0 1.64 2.34 3.15 5.87 4C6.52 18.5 6 20.38 6.32 21.89A2 2 0 0 0 8.22 23.5c.89 0 2-.5 3.43-1.5 1.43 1 2.54 1.5 3.43 1.5a2 2 0 0 0 1.9-1.61C17.34 20.38 17 18.5 15.87 16c3.53-.85 5.87-2.36 5.87-4S19.4 8.85 15.87 8C17 5.5 17.34 3.62 17 2.11A2 2 0 0 0 15.08.5C14.19.5 13.08 1 11.65 2c-1.43-1-2.54-1.5-3.43-1.5A2 2 0 0 0 6.32 2.11C6 3.62 6.52 5.5 7.87 8 4.34 8.85 2 10.36 2 12zm5.36-2.58C7.77 9 8.2 8.61 8.64 8.28A16.57 16.57 0 0 1 8.47 6a9.53 9.53 0 0 1 .42-2.62A.82.82 0 0 1 9.46 3c.29 0 .82.2 1.61.7-.51.35-1 .74-1.5 1.17A16.9 16.9 0 0 0 7.36 9.42zm9.28 0A16.9 16.9 0 0 0 14.43 4.87a14.68 14.68 0 0 0-1.5-1.17C13.72 3.2 14.25 3 14.54 3a.82.82 0 0 1 .57.38A9.53 9.53 0 0 1 15.53 6a16.57 16.57 0 0 1-.17 2.28c.44.33.87.72 1.28 1.14zm-1.28 5.16A16.57 16.57 0 0 1 15.53 18a9.53 9.53 0 0 1-.42 2.62.82.82 0 0 1-.57.38c-.29 0-.82-.2-1.61-.7.51-.35 1-.74 1.5-1.17a16.9 16.9 0 0 0 2.21-4.55zm-9.28 0A16.9 16.9 0 0 0 7.57 19.13a14.68 14.68 0 0 0 1.5 1.17c-.79.5-1.32.7-1.61.7a.82.82 0 0 1-.57-.38A9.53 9.53 0 0 1 6.47 18a16.57 16.57 0 0 1 .17-2.28c-.44-.33-.87-.72-1.28-1.14zM12 14.62a21 21 0 0 1-2.05-.12c-.65.58-1.28 1.1-1.88 1.52A16.48 16.48 0 0 0 12 16.62a16.48 16.48 0 0 0 3.93-.6c-.6-.42-1.23-.94-1.88-1.52A21 21 0 0 1 12 14.62zm0-5.24a21 21 0 0 1 2.05.12c.65-.58 1.28-1.1 1.88-1.52A16.48 16.48 0 0 0 12 7.38a16.48 16.48 0 0 0-3.93.6c.6.42 1.23.94 1.88 1.52A21 21 0 0 1 12 9.38zM5 12a18.22 18.22 0 0 1 1.19-1.9A18.22 18.22 0 0 1 5 12a18.22 18.22 0 0 1 1.19 1.9A18.22 18.22 0 0 1 5 12zm14 0a18.22 18.22 0 0 1-1.19 1.9A18.22 18.22 0 0 1 19 12a18.22 18.22 0 0 1-1.19-1.9A18.22 18.22 0 0 1 19 12z"/></svg>
