<svg xmlns="http://www.w3.org/2000/svg" viewBox="0 0 24 24" fill="currentColor"><path d="M12 2C6.486 2 2 6.486 2 12s4.486 10 10 10 10-4.486 10-10S17.514 2 12 2zm0 1.5c4.687 0 8.5 3.813 8.5 8.5 0 4.687-3.813 8.5-8.5 8.5S3.5 16.687 3.5 12c0-4.687 3.813-8.5 8.5-8.5zM5.5 12c0 .842.126 1.655.36 2.421L8.376 5.72A6.53 6.53 0 0 0 5.5 12zm11.344-1.18a3.49 3.49 0 0 0-.547-1.82c-.337-.549-.652-1.014-.652-1.563 0-.612.464-1.182 1.119-1.182l.084.008a6.49 6.49 0 0 0-3.848-1.263c-1.99 0-3.744 1.022-4.762 2.57l.408.012c.663 0 1.689-.08 1.689-.08.342-.02.382.481.041.521 0 0-.343.04-.725.06l2.306 6.864 1.385-4.154-.987-2.71a12.02 12.02 0 0 1-.663-.06c-.342-.02-.301-.541.04-.521 0 0 1.046.08 1.668.08.663 0 1.688-.08 1.688-.08.342-.02.383.481.041.521 0 0-.343.04-.724.06l2.289 6.813.633-2.112c.274-.876.482-1.506.482-2.048zm-4.574 4.714L9.986 9.62l-2.31 6.71c.69.204 1.42.314 2.175.314a6.52 6.52 0 0 0 2.418-.459zm5.3-3.494c.02-.295.03-.605.03-.929 0-.965-.358-1.629-.664-2.172L17.02 15.1A6.535 6.535 0 0 0 17.57 12.04z"/></svg>
